HIERARCHY
ROOT joint_Root
{
	OFFSET 0.0 0.0 0.0
	CHANNELS 6 Xposition Yposition Zposition Zrotation Xrotation Yrotation 
	JOINT Hips
	{
		OFFSET 4.5925 91.4895 -427.239
		CHANNELS 6 Xposition Yposition Zposition Zrotation Xrotation Yrotation 
		JOINT Spine
		{
			OFFSET 15.7357 0.0 0.0
			CHANNELS 6 Xposition Yposition Zposition Zrotation Xrotation Yrotation 
			JOINT Chest
			{
				OFFSET 8.98455 -0.406207 0.0
				CHANNELS 6 Xposition Yposition Zposition Zrotation Xrotation Yrotation 
				JOINT Neck
				{
					OFFSET 16.3773 0.0 0.0
					CHANNELS 6 Xposition Yposition Zposition Zrotation Xrotation Yrotation 
					JOINT Head
					{
						OFFSET 6.45672 0.0 0.0
						CHANNELS 6 Xposition Yposition Zposition Zrotation Xrotation Yrotation 
						End Site
						{
							OFFSET 0.0 0.0 0.0
						}
					}
				}
				JOINT Shoulder_L
				{
					OFFSET 12.9942 -0.242716 4.98039
					CHANNELS 6 Xposition Yposition Zposition Zrotation Xrotation Yrotation 
					JOINT UpperArm_L
					{
						OFFSET 5.34809 0.0 0.0
						CHANNELS 6 Xposition Yposition Zposition Zrotation Xrotation Yrotation 
						JOINT LowerArm_L
						{
							OFFSET 24.3286 1.87007e-05 0.0
							CHANNELS 6 Xposition Yposition Zposition Zrotation Xrotation Yrotation 
							JOINT Hand_L
							{
								OFFSET 22.2916 0.0 0.0
								CHANNELS 6 Xposition Yposition Zposition Zrotation Xrotation Yrotation 
								End Site
								{
									OFFSET 0.0 0.0 0.0
								}
							}
						}
					}
				}
				JOINT Shoulder_R
				{
					OFFSET 12.9945 -0.242716 -4.98039
					CHANNELS 6 Xposition Yposition Zposition Zrotation Xrotation Yrotation 
					JOINT UpperArm_R
					{
						OFFSET -5.34813 0.0 0.0
						CHANNELS 6 Xposition Yposition Zposition Zrotation Xrotation Yrotation 
						JOINT LowerArm_R
						{
							OFFSET -24.3289 0.000322201 0.0
							CHANNELS 6 Xposition Yposition Zposition Zrotation Xrotation Yrotation 
							JOINT Hand_R
							{
								OFFSET -22.2915 -0.000108084 0.0
								CHANNELS 6 Xposition Yposition Zposition Zrotation Xrotation Yrotation 
								End Site
								{
									OFFSET 0.0 0.0 0.0
								}
							}
						}
					}
				}
			}
		}
		JOINT UpperLeg_L
		{
			OFFSET -2.19248 -6.46944 0.0
			CHANNELS 6 Xposition Yposition Zposition Zrotation Xrotation Yrotation 
			JOINT LowerLeg_L
			{
				OFFSET 39.0811 0.0 -1.23785e-05
				CHANNELS 6 Xposition Yposition Zposition Zrotation Xrotation Yrotation 
				JOINT Foot_L
				{
					OFFSET 40.9854 0.0 -1.26872e-05
					CHANNELS 6 Xposition Yposition Zposition Zrotation Xrotation Yrotation 
					JOINT Toes_L
					{
						OFFSET 11.7543 0.0 0.0
						CHANNELS 6 Xposition Yposition Zposition Zrotation Xrotation Yrotation 
						End Site
						{
							OFFSET 0.0 0.0 0.0
						}
					}
				}
			}
		}
		JOINT UpperLeg_R
		{
			OFFSET -2.19251 6.46944 0.0
			CHANNELS 6 Xposition Yposition Zposition Zrotation Xrotation Yrotation 
			JOINT LowerLeg_R
			{
				OFFSET -39.0811 -0.00228153 -0.0401928
				CHANNELS 6 Xposition Yposition Zposition Zrotation Xrotation Yrotation 
				JOINT Foot_R
				{
					OFFSET -40.9854 0.0 0.0
					CHANNELS 6 Xposition Yposition Zposition Zrotation Xrotation Yrotation 
					JOINT Toes_R
					{
						OFFSET -11.7543 0.0 0.0
						CHANNELS 6 Xposition Yposition Zposition Zrotation Xrotation Yrotation 
						End Site
						{
							OFFSET 0.0 0.0 0.0
						}
					}
				}
			}
		}
	}
}
MOTION
Frames:	6
Frame Time:	0.0333333
0.000000 0.000000 0.000000 0.000000 0.000000 -0.000000 3.657640 90.511100 528.847000 -90.375100 -0.519011 -178.184000 15.735700 0.000005 -0.000001 91.573000 79.376600 -91.500100 8.984550 -0.406207 -0.000000 13.472900 0.580597 0.077342 16.377300 -0.000001 -0.000001 3.812240 -3.182460 1.000730 6.456720 -0.000001 -0.000000 -7.516750 -3.335290 0.959093 12.994200 -0.242716 4.980390 -91.167700 4.218440 -74.511900 5.348090 -0.000007 -0.000001 -66.570300 24.956100 -13.019100 24.328600 0.000019 0.000005 14.499500 22.881000 -33.628200 22.291600 -0.000001 0.000005 11.273400 5.251990 1.379580 12.994500 -0.242716 -4.980390 88.595500 9.028040 -81.119700 -5.348130 -0.000001 -0.000004 -56.656300 27.409700 -22.983700 -24.328900 0.000322 -0.000009 3.077920 6.132490 -26.726500 -22.291500 -0.000108 -0.000004 17.887400 5.403110 -3.038880 -2.192480 -6.469440 -0.000000 -178.051000 -6.909300 -20.253000 39.081100 -0.000007 -0.000012 0.021129 -0.020363 46.053700 40.985400 -0.000006 -0.000013 0.400381 2.245050 -66.640400 11.754300 -0.000000 0.000003 -0.002882 -0.039263 -18.173500 -2.192510 6.469440 -0.000001 -178.935000 23.471000 167.963000 -39.081100 -0.002282 -0.040193 -0.115633 0.182869 33.037900 -40.985400 0.000008 0.000006 5.823420 7.358790 -70.577600 -11.754300 -0.000006 -0.000006 -0.002583 -0.035791 -18.028500
0.000000 0.000000 0.000000 0.000000 0.000000 -0.000000 3.611290 90.697400 527.492000 -90.495900 -0.201920 -178.432000 15.735700 0.000005 -0.000001 92.142800 79.447800 -92.199600 8.984550 -0.406207 -0.000000 13.325000 0.778032 -0.204469 16.377300 -0.000001 -0.000001 3.523290 -3.214420 1.087070 6.456720 -0.000001 -0.000000 -7.696610 -3.436650 0.899914 12.994200 -0.242716 4.980390 -91.206300 4.350870 -74.487800 5.348090 -0.000007 -0.000001 -67.187300 24.758100 -11.784000 24.328600 0.000019 0.000005 14.028200 23.539500 -32.030100 22.291600 -0.000001 0.000005 11.153900 5.244480 1.578240 12.994500 -0.242716 -4.980390 88.651900 8.851380 -81.304700 -5.348130 -0.000001 -0.000004 -56.267900 27.200100 -23.879100 -24.328900 0.000322 -0.000009 3.084160 5.998720 -27.282600 -22.291500 -0.000108 -0.000004 17.997800 5.404010 -3.068400 -2.192480 -6.469440 -0.000000 -178.621000 -8.057790 -20.720500 39.081100 -0.000007 -0.000012 0.019729 -0.023923 39.509700 40.985400 -0.000006 -0.000013 -0.302109 3.401540 -65.475200 11.754300 -0.000000 0.000003 -0.000719 -0.011339 -17.038100 -2.192510 6.469440 -0.000001 -179.540000 24.119300 169.472000 -39.081100 -0.002282 -0.040193 -0.133169 0.220135 31.795800 -40.985400 0.000008 0.000006 5.771460 8.528920 -70.987600 -11.754300 -0.000006 -0.000006 -0.003640 -0.047646 -18.511100
0.000000 0.000000 0.000000 0.000000 0.000000 -0.000000 3.512450 90.813800 526.087000 -90.503100 0.128936 -178.748000 15.735700 0.000005 -0.000001 92.792200 79.514900 -92.946800 8.984550 -0.406207 -0.000000 13.182000 1.003670 -0.425185 16.377300 -0.000001 -0.000001 3.250330 -3.277310 1.145590 6.456720 -0.000001 -0.000000 -7.861620 -3.552680 0.915615 12.994200 -0.242716 4.980390 -91.225100 4.412770 -74.467000 5.348090 -0.000007 -0.000001 -67.942500 24.210900 -10.686900 24.328600 0.000019 0.000005 13.748800 24.455400 -30.584300 22.291600 -0.000001 0.000005 11.025300 5.237510 1.760450 12.994500 -0.242716 -4.980390 88.684100 8.734830 -81.398700 -5.348130 -0.000001 -0.000004 -55.596000 27.464000 -24.748400 -24.328900 0.000322 -0.000009 3.370910 6.370810 -27.967900 -22.291500 -0.000108 -0.000004 18.079100 5.400490 -2.953750 -2.192480 -6.469440 -0.000000 -179.202000 -9.134970 -21.073200 39.081100 -0.000007 -0.000012 0.015428 -0.023970 32.764500 40.985400 -0.000006 -0.000013 -0.046966 4.198940 -63.412500 11.754300 -0.000000 0.000003 -0.000534 -0.008547 -16.924600 -2.192510 6.469440 -0.000001 179.967000 24.788100 170.814000 -39.081100 -0.002282 -0.040193 -0.135558 0.233856 30.701000 -40.985400 0.000008 0.000006 5.592240 9.426990 -71.417800 -11.754300 -0.000006 -0.000006 -0.001630 -0.023980 -17.548200
0.000000 0.000000 0.000000 0.000000 0.000000 -0.000000 3.348790 90.817400 524.539000 -90.510000 0.643184 -178.935000 15.735700 0.000005 -0.000001 93.521900 79.541200 -93.812500 8.984550 -0.406207 -0.000000 13.117700 1.258270 -0.725852 16.377300 -0.000001 -0.000001 3.080000 -3.258360 1.192710 6.456720 -0.000001 -0.000000 -8.010080 -3.623210 1.018170 12.994200 -0.242716 4.980390 -91.233700 4.434450 -74.436100 5.348090 -0.000007 -0.000001 -68.660200 23.402500 -9.681390 24.328600 0.000019 0.000005 13.227500 24.899400 -29.173900 22.291600 -0.000001 0.000005 11.265300 5.216900 2.292130 12.994500 -0.242716 -4.980390 88.718700 8.655440 -81.546300 -5.348130 -0.000001 -0.000004 -55.018200 27.842900 -25.350600 -24.328900 0.000322 -0.000009 3.451600 6.341780 -28.643700 -22.291500 -0.000108 -0.000004 18.310400 5.402260 -3.011190 -2.192480 -6.469440 -0.000000 179.963000 -10.324200 -22.344800 39.081100 -0.000007 -0.000012 0.063101 -0.117178 28.302400 40.985400 -0.000006 -0.000013 0.850037 4.852610 -60.157500 11.754300 -0.000000 0.000003 -0.000640 -0.010163 -16.990300 -2.192510 6.469440 -0.000001 179.399000 24.947200 172.174000 -39.081100 -0.002282 -0.040193 -0.127179 0.225071 30.102300 -40.985400 0.000008 0.000006 6.115180 9.969400 -72.338800 -11.754300 -0.000006 -0.000006 -0.002113 -0.030124 -17.798000
0.000000 0.000000 0.000000 0.000000 0.000000 -0.000000 3.104290 90.683300 522.771000 -90.385200 1.188410 -178.936000 15.735700 0.000005 -0.000001 94.051700 79.510000 -94.450700 8.984550 -0.406207 -0.000000 13.169700 1.448310 -0.965286 16.377300 -0.000001 -0.000001 3.008720 -3.180920 1.281170 6.456720 -0.000001 -0.000000 -8.156200 -3.647650 0.990958 12.994200 -0.242716 4.980390 -91.242100 4.457300 -74.411100 5.348090 -0.000007 -0.000001 -69.175000 22.699000 -8.852910 24.328600 0.000019 0.000005 13.060300 25.599500 -28.230900 22.291600 -0.000001 0.000005 10.709700 5.213880 2.368800 12.994500 -0.242716 -4.980390 88.748200 8.566150 -81.653900 -5.348130 -0.000001 -0.000004 -54.554700 28.320300 -25.834400 -24.328900 0.000322 -0.000009 3.395450 6.089630 -29.225400 -22.291500 -0.000108 -0.000004 18.264500 5.405010 -3.100960 -2.192480 -6.469440 -0.000000 179.243000 -11.778600 -23.806500 39.081100 -0.000007 -0.000012 0.097292 -0.197071 26.275000 40.985400 -0.000006 -0.000013 1.365390 5.432060 -58.862000 11.754300 -0.000000 0.000003 -0.000392 -0.006355 -16.835600 -2.192510 6.469440 -0.000001 178.831000 24.666200 173.666000 -39.081100 -0.002282 -0.040193 -0.098795 0.177588 29.895100 -40.985400 0.000008 0.000006 6.523130 10.068100 -73.544500 -11.754300 -0.000006 -0.000006 -0.001679 -0.024622 -17.574300
0.000000 0.000000 0.000000 0.000000 0.000000 -0.000000 2.729700 90.456200 520.816000 -90.456900 1.607700 -179.008000 15.735700 0.000005 -0.000001 93.962800 79.547900 -94.541600 8.984550 -0.406207 -0.000000 13.098400 1.403020 -1.318890 16.377300 -0.000001 -0.000001 3.087010 -3.099250 1.319490 6.456720 -0.000001 -0.000000 -8.189410 -3.629020 1.067410 12.994200 -0.242716 4.980390 -91.262300 4.516850 -74.368900 5.348090 -0.000007 -0.000001 -69.436000 22.341600 -8.155780 24.328600 0.000019 0.000005 12.864700 26.073900 -27.456500 22.291600 -0.000001 0.000005 10.665700 5.215070 2.338690 12.994500 -0.242716 -4.980390 88.765200 8.539270 -81.740400 -5.348130 -0.000001 -0.000004 -54.208100 28.908300 -26.083600 -24.328900 0.000322 -0.000009 3.376660 5.951330 -29.650300 -22.291500 -0.000108 -0.000004 18.259700 5.404960 -3.099490 -2.192480 -6.469440 -0.000000 178.501000 -12.453400 -24.737100 39.081100 -0.000007 -0.000012 0.075065 -0.155116 25.823600 40.985400 -0.000006 -0.000013 1.935500 4.586500 -57.321500 11.754300 -0.000000 0.000003 -0.000071 -0.001186 -16.625600 -2.192510 6.469440 -0.000001 178.056000 24.082500 175.021000 -39.081100 -0.002282 -0.040193 -0.033616 0.063921 30.008900 -40.985400 0.000008 0.000006 6.911600 9.799820 -75.006100 -11.754300 -0.000006 -0.000006 -0.002265 -0.031988 -17.873800
